# Blender v2.74 (sub 0) OBJ File: 'empty.blend'
# www.blender.org
mtllib hand_thumb.mtl
o default
v -0.020546 0.006196 0.010698
v -0.030689 0.021305 -0.001931
v -0.019777 0.025069 -0.001179
v -0.028442 0.005327 0.010642
v -0.017752 0.025007 -0.008121
v -0.030617 0.014140 0.005755
v -0.020482 0.017122 0.005662
v -0.029857 0.020580 -0.007864
v -0.031464 -0.002509 0.009323
v -0.020463 -0.000822 0.009204
v -0.028454 -0.008461 0.006283
v -0.020259 -0.006982 0.006217
v -0.028028 -0.010695 0.000799
v -0.020112 -0.009574 0.001500
v -0.028935 -0.007300 -0.005913
v -0.019478 -0.006092 -0.005289
v -0.039613 0.005225 -0.010657
v -0.036522 -0.001558 -0.011347
v -0.017705 -0.000305 -0.010486
v -0.027361 -0.001390 -0.010873
v -0.016363 0.002858 -0.011786
v -0.027286 0.001969 -0.011981
v -0.016182 0.014147 -0.012041
v -0.028096 0.011780 -0.011774
v -0.063466 -0.043619 0.001713
v -0.058696 -0.048011 -0.000383
v -0.053987 -0.035943 -0.003375
v -0.060053 -0.031697 -0.001335
v -0.057456 -0.017355 -0.004755
v -0.051271 -0.021704 -0.006755
v -0.046789 -0.010933 -0.009197
v -0.051782 -0.004866 -0.007410
v -0.065633 -0.049043 0.003245
v -0.063947 -0.054487 0.001837
v -0.070019 -0.050648 0.007793
v -0.070937 -0.056008 0.008048
v -0.070326 -0.049576 0.013102
v -0.071908 -0.054874 0.013787
v -0.067524 -0.047777 0.016672
v -0.067810 -0.052469 0.019988
v -0.063955 -0.043690 0.017606
v -0.061185 -0.047600 0.021504
v -0.035285 0.002695 0.010899
v -0.040000 0.009973 0.005585
v -0.043931 -0.004015 0.012027
v -0.051227 0.000554 0.006216
v -0.049631 -0.014477 0.014214
v -0.057127 -0.011579 0.009336
v -0.051751 -0.024199 0.016442
v -0.059615 -0.024692 0.012612
v -0.056454 -0.038572 0.019734
v -0.062669 -0.036418 0.015120
v -0.043359 0.013590 -0.000744
v -0.042918 0.013281 -0.005925
v -0.054335 0.001598 0.001894
v -0.055152 0.000166 -0.003063
v -0.061424 -0.012397 0.004570
v -0.061634 -0.013385 -0.001202
v -0.064181 -0.024775 0.007549
v -0.064043 -0.026888 0.001806
v -0.067328 -0.038563 0.010597
v -0.066839 -0.038664 0.004967
v -0.039534 -0.008960 0.010012
v -0.036861 -0.012662 0.007674
v -0.045713 -0.017170 0.012177
v -0.041983 -0.020113 0.009418
v -0.048276 -0.024775 0.014456
v -0.044005 -0.012776 -0.008915
v -0.035090 -0.004460 -0.010614
v -0.035601 -0.010592 -0.005431
v -0.040590 -0.015516 -0.004355
v -0.048295 -0.023282 -0.006262
v -0.044408 -0.023479 -0.002308
v -0.051170 -0.036948 -0.002821
v -0.047135 -0.035049 0.000850
v -0.056199 -0.050011 0.000281
v -0.052806 -0.049163 0.003973
v -0.062149 -0.057936 0.002850
v -0.057397 -0.056076 0.007859
v -0.069935 -0.058577 0.008656
v -0.066005 -0.059007 0.010531
v -0.070572 -0.056900 0.015566
v -0.065958 -0.058131 0.014292
v -0.053287 -0.039984 0.018389
v -0.058073 -0.049415 0.020679
v -0.066769 -0.055188 0.020129
v -0.063683 -0.056149 0.018388
v -0.060651 -0.056868 0.012760
v -0.050209 -0.042812 0.014359
v -0.049986 -0.044834 0.009914
v -0.035175 -0.014607 0.001666
v -0.040591 -0.022610 0.003605
v -0.044342 -0.032441 0.006349
v -0.045090 -0.029381 0.011588
v -0.055114 -0.051638 0.015512
v -0.053823 -0.051756 0.011212
v -0.066795 -0.059156 0.005557
v -0.068216 -0.056384 0.004561
vt 0.970757 0.426740
vt 0.988492 0.568196
vt 0.853212 0.534595
vt 0.843822 0.417613
vt 0.897729 0.181180
vt 0.931069 0.273105
vt 0.833753 0.295071
vt 0.761247 0.216825
vt 0.836594 0.596604
vt 0.971686 0.666536
vt 0.761256 0.119420
vt 0.866990 0.096390
vt 0.750742 0.040498
vt 0.850749 0.028177
vt 0.468168 0.850315
vt 0.547120 0.790951
vt 0.609770 0.900846
vt 0.519454 0.945543
vt 0.520941 0.520409
vt 0.649348 0.606476
vt 0.597531 0.664667
vt 0.473195 0.582471
vt 0.769501 0.679371
vt 0.679286 0.745621
vt 0.709187 0.869659
vt 0.641139 0.764280
vt 0.757609 0.859246
vt 0.875599 0.780019
vt 0.404331 0.472941
vt 0.361812 0.534984
vt 0.277596 0.421973
vt 0.228113 0.474822
vt 0.182321 0.361154
vt 0.135195 0.394366
vt 0.134171 0.232688
vt 0.162532 0.247688
vt 0.143986 0.279148
vt 0.107078 0.259445
vt 0.163109 0.204512
vt 0.185171 0.226238
vt 0.202242 0.181365
vt 0.219782 0.217486
vt 0.747791 0.297246
vt 0.735500 0.407418
vt 0.627395 0.281304
vt 0.598199 0.381678
vt 0.484279 0.328774
vt 0.506104 0.239778
vt 0.373768 0.273163
vt 0.411857 0.200269
vt 0.275122 0.174948
vt 0.272408 0.241209
vt 0.704340 0.528950
vt 0.714528 0.482365
vt 0.557059 0.465235
vt 0.579511 0.426232
vt 0.454082 0.376927
vt 0.437898 0.424166
vt 0.351391 0.331235
vt 0.325292 0.379966
vt 0.238682 0.284788
vt 0.229072 0.329887
vt 0.637605 0.134270
vt 0.636346 0.200986
vt 0.516099 0.184373
vt 0.523239 0.119538
vt 0.429729 0.163520
vt 0.572049 0.691197
vt 0.457349 0.614135
vt 0.482262 0.722051
vt 0.412293 0.670185
vt 0.341973 0.564561
vt 0.317321 0.621549
vt 0.196587 0.557966
vt 0.209878 0.498615
vt 0.110208 0.406587
vt 0.084915 0.444091
vt 0.075724 0.331262
vt 0.102411 0.332171
vt 0.026775 0.370621
vt 0.097089 0.292014
vt 0.071948 0.289897
vt 0.081537 0.244768
vt 0.030250 0.269166
vt 0.131799 0.217689
vt 0.083404 0.189205
vt 0.115621 0.189994
vt 0.275868 0.143980
vt 0.197990 0.159523
vt 0.153232 0.196231
vt 0.147130 0.180693
vt 0.123285 0.144560
vt 0.105382 0.091052
vt 0.148025 0.708778
vt 0.083445 0.855781
vt 0.060429 0.788249
vt 0.075055 0.734019
vt 0.235211 0.963980
vt 0.122388 0.918940
vt 0.262224 0.725951
vt 0.344116 0.807702
vt 0.391638 0.772763
vt 0.648888 0.048835
vt 0.527658 0.039494
vt 0.286050 0.702838
vt 0.412422 0.098790
vt 0.401404 0.030905
vt 0.173729 0.631424
vt 0.266271 0.092573
vt 0.249875 0.045850
vt 0.054838 0.522003
vt 0.182046 0.116716
vt 0.170428 0.077238
vt 0.007001 0.444270
vt 0.228098 0.711349
vt 0.340383 0.973136
vt 0.391347 0.919231
vt 0.145477 0.329011
vn 0.516700 0.470200 0.715400
vn 0.388300 0.833800 0.392500
vn -0.392900 0.882100 0.259600
vn -0.219700 0.593600 0.774100
vn 0.642600 -0.239500 0.727800
vn 0.565200 0.120300 0.816100
vn -0.030100 0.169500 0.985000
vn 0.161400 -0.257500 0.952700
vn -0.348400 0.711800 -0.609800
vn 0.539100 0.747200 -0.388500
vn 0.257600 -0.654600 0.710700
vn 0.673500 -0.481600 0.560800
vn 0.310800 -0.947400 -0.075700
vn 0.653200 -0.756100 0.040700
vn 0.231400 -0.751600 -0.617600
vn 0.669400 -0.647500 -0.364100
vn -0.466700 0.153200 -0.871000
vn -0.298600 0.188500 -0.935600
vn -0.084200 -0.089300 -0.992400
vn -0.195100 -0.083900 -0.977200
vn -0.139100 0.209000 -0.968000
vn 0.003200 -0.135600 -0.990800
vn 0.510200 -0.561200 -0.651600
vn 0.112100 -0.481900 -0.869000
vn 0.751500 -0.198000 -0.629300
vn 0.732300 0.177100 -0.657500
vn -0.520100 -0.036700 -0.853300
vn -0.193400 -0.176500 -0.965100
vn -0.532400 -0.089200 -0.841800
vn -0.149100 -0.201700 -0.968000
vn -0.554800 -0.020000 -0.831700
vn -0.196200 -0.171900 -0.965400
vn -0.982700 -0.055900 0.176500
vn -0.932000 0.308100 0.190600
vn -0.901900 0.171700 -0.396200
vn -0.914300 -0.145700 -0.377900
vn -0.609600 0.135700 0.780900
vn -0.709500 0.399200 0.580700
vn -0.150500 0.132500 0.979700
vn -0.586700 0.381500 0.714300
vn -0.041300 0.184300 0.982000
vn -0.345700 0.593800 0.726600
vn -0.063100 0.221800 0.973000
vn -0.508200 0.512200 0.692300
vn -0.584900 0.377200 0.718000
vn -0.017300 0.210200 0.977500
vn -0.582900 0.315700 0.748700
vn 0.052100 0.213000 0.975600
vn -0.023300 0.215800 0.976100
vn -0.620700 0.326000 0.713000
vn -0.573900 0.627900 -0.525700
vn -0.582400 0.770200 0.259900
vn -0.776600 0.462600 -0.427700
vn -0.757700 0.592300 0.274000
vn -0.883700 0.365900 0.291800
vn -0.874600 0.207400 -0.438200
vn -0.914400 0.270600 0.301000
vn -0.884400 0.068100 -0.461800
vn -0.914700 0.300400 0.270100
vn -0.889700 0.122600 -0.439700
vn 0.564600 -0.439300 0.698700
vn 0.369200 -0.169200 0.913800
vn 0.510600 -0.026500 0.859400
vn 0.746500 -0.214900 0.629700
vn 0.573700 0.029900 0.818500
vn 0.159500 -0.424200 -0.891400
vn 0.220500 -0.359700 -0.906600
vn 0.420200 -0.689800 -0.589600
vn 0.595400 -0.551100 -0.584600
vn 0.346800 -0.334900 -0.876100
vn 0.726700 -0.418800 -0.544500
vn 0.819200 -0.376500 -0.432600
vn 0.447000 -0.345300 -0.825200
vn 0.406400 -0.473600 -0.781400
vn 0.792500 -0.517900 -0.322100
vn 0.175500 -0.776200 -0.605600
vn -0.328200 -0.184300 -0.926400
vn 0.613300 -0.788100 -0.051800
vn -0.632800 -0.233500 -0.738200
vn -0.223300 -0.881200 -0.416700
vn -0.615000 -0.775700 -0.141300
vn 0.070200 -0.988300 0.135100
vn -0.642400 -0.630300 0.436000
vn 0.041000 -0.953700 0.298000
vn 0.583000 -0.058400 0.810300
vn 0.461500 -0.336100 0.820900
vn -0.227800 -0.521000 0.822600
vn 0.310700 -0.774100 0.551500
vn 0.452500 -0.852100 0.262800
vn 0.655700 -0.751900 -0.067900
vn 0.887200 -0.456300 -0.068500
vn 0.821500 -0.161700 0.546800
vn 0.935100 -0.354000 -0.011000
vn 0.835700 -0.300700 0.459400
vn 0.902100 -0.427500 0.059200
vn 0.676300 -0.596900 0.431700
vn 0.796100 -0.591500 0.127400
vn -0.611300 0.046500 -0.790000
usemtl hand_thumb
s 1
f 7/1/1 3/2/2 2/3/3
f 2/3/3 6/4/4 7/1/1
f 10/5/5 1/6/6 4/7/7
f 4/7/7 9/8/8 10/5/5
f 1/6/6 7/1/1 6/4/4
f 6/4/4 4/7/7 1/6/6
f 8/9/9 2/3/3 3/2/2
f 3/2/2 5/10/10 8/9/9
f 11/11/11 12/12/12 10/5/5
f 10/5/5 9/8/8 11/11/11
f 11/11/11 13/13/13 14/14/14
f 14/14/14 12/12/12 11/11/11
f 13/15/13 15/16/15 16/17/16
f 16/17/16 14/18/14 13/15/13
f 32/19/17 17/20/18 18/21/19
f 18/21/19 31/22/20 32/19/17
f 17/20/18 24/23/21 22/24/22
f 22/24/22 18/21/19 17/20/18
f 19/25/23 20/26/24 22/24/22
f 22/24/22 21/27/25 19/25/23
f 21/27/25 22/24/22 24/23/21
f 24/23/21 23/28/26 21/27/25
f 23/28/26 24/23/21 8/9/9
f 8/9/9 5/10/10 23/28/26
f 29/29/27 32/19/17 31/22/20
f 31/22/20 30/30/28 29/29/27
f 20/26/24 19/25/23 16/17/16
f 16/17/16 15/16/15 20/26/24
f 28/31/29 29/29/27 30/30/28
f 30/30/28 27/32/30 28/31/29
f 25/33/31 28/31/29 27/32/30
f 27/32/30 26/34/32 25/33/31
f 38/35/33 37/36/34 35/37/35
f 35/37/35 36/38/36 38/35/33
f 40/39/37 39/40/38 37/36/34
f 37/36/34 38/35/33 40/39/37
f 42/41/39 41/42/40 39/40/38
f 39/40/38 40/39/37 42/41/39
f 43/43/41 4/7/7 6/4/4
f 6/4/4 44/44/42 43/43/41
f 45/45/43 43/43/41 44/44/42
f 44/44/42 46/46/44 45/45/43
f 48/47/45 47/48/46 45/45/43
f 45/45/43 46/46/44 48/47/45
f 50/49/47 49/50/48 47/48/46
f 47/48/46 48/47/45 50/49/47
f 51/51/49 49/50/48 50/49/47
f 50/49/47 52/52/50 51/51/49
f 51/51/49 52/52/50 41/42/40
f 41/42/40 42/41/39 51/51/49
f 54/53/51 53/54/52 2/3/3
f 2/3/3 8/9/9 54/53/51
f 56/55/53 55/56/54 53/54/52
f 53/54/52 54/53/51 56/55/53
f 6/4/4 2/3/3 53/54/52
f 53/54/52 44/44/42 6/4/4
f 53/54/52 55/56/54 46/46/44
f 46/46/44 44/44/42 53/54/52
f 54/53/51 8/9/9 24/23/21
f 24/23/21 17/20/18 54/53/51
f 56/55/53 54/53/51 17/20/18
f 17/20/18 32/19/17 56/55/53
f 57/57/55 55/56/54 56/55/53
f 56/55/53 58/58/56 57/57/55
f 55/56/54 57/57/55 48/47/45
f 48/47/45 46/46/44 55/56/54
f 58/58/56 56/55/53 32/19/17
f 32/19/17 29/29/27 58/58/56
f 59/59/57 57/57/55 58/58/56
f 58/58/56 60/60/58 59/59/57
f 60/60/58 58/58/56 29/29/27
f 29/29/27 28/31/29 60/60/58
f 57/57/55 59/59/57 50/49/47
f 50/49/47 48/47/45 57/57/55
f 59/59/57 61/61/59 52/52/50
f 52/52/50 50/49/47 59/59/57
f 62/62/60 61/61/59 59/59/57
f 59/59/57 60/60/58 62/62/60
f 62/62/60 60/60/58 28/31/29
f 28/31/29 25/33/31 62/62/60
f 41/42/40 52/52/50 61/61/59
f 61/61/59 39/40/38 41/42/40
f 39/40/38 61/61/59 37/36/34
f 61/61/59 62/62/60 35/37/35
f 35/37/35 37/36/34 61/61/59
f 64/63/61 11/11/11 9/8/8
f 9/8/8 63/64/62 64/63/61
f 4/7/7 43/43/41 9/8/8
f 63/64/62 9/8/8 43/43/41
f 43/43/41 45/45/43 63/64/62
f 47/48/46 65/65/63 63/64/62
f 63/64/62 45/45/43 47/48/46
f 65/65/63 66/66/64 64/63/61
f 64/63/61 63/64/62 65/65/63
f 49/50/48 67/67/65 65/65/63
f 65/65/63 47/48/46 49/50/48
f 69/68/66 68/69/67 31/22/20
f 31/22/20 18/21/19 69/68/66
f 20/26/24 69/68/66 18/21/19
f 18/21/19 22/24/22 20/26/24
f 15/16/15 70/70/68 69/68/66
f 69/68/66 20/26/24 15/16/15
f 68/69/67 69/68/66 70/70/68
f 70/70/68 71/71/69 68/69/67
f 68/69/67 72/72/70 30/30/28
f 30/30/28 31/22/20 68/69/67
f 72/72/70 68/69/67 71/71/69
f 71/71/69 73/73/71 72/72/70
f 72/72/70 73/73/71 75/74/72
f 75/74/72 74/75/73 72/72/70
f 72/72/70 74/75/73 27/32/30
f 27/32/30 30/30/28 72/72/70
f 74/75/73 76/76/74 26/34/32
f 26/34/32 27/32/30 74/75/73
f 74/75/73 75/74/72 77/77/75
f 77/77/75 76/76/74 74/75/73
f 76/76/74 78/78/76 34/79/77
f 34/79/77 26/34/32 76/76/74
f 76/76/74 77/77/75 79/80/78
f 79/80/78 78/78/76 76/76/74
f 98/81/79 97/82/80 80/83/81
f 80/83/81 36/38/36 98/81/79
f 80/83/81 97/82/80 81/84/82
f 80/83/81 82/85/83 38/35/33
f 38/35/33 36/38/36 80/83/81
f 80/83/81 81/86/82 83/87/84
f 83/87/84 82/85/83 80/83/81
f 84/88/85 67/67/65 49/50/48
f 49/50/48 51/51/49 84/88/85
f 85/89/86 84/88/85 51/51/49
f 51/51/49 42/41/39 85/89/86
f 86/90/87 85/89/86 42/41/39
f 42/41/39 40/39/37 86/90/87
f 82/85/83 86/90/87 40/39/37
f 40/39/37 38/35/33 82/85/83
f 86/90/87 82/85/83 83/87/84
f 83/87/84 87/91/88 86/90/87
f 87/91/88 85/89/86 86/90/87
f 88/92/89 83/87/84 81/86/82
f 81/86/82 79/93/78 88/92/89
f 83/87/84 88/92/89 87/91/88
f 88/92/89 85/89/86 87/91/88
f 16/94/16 10/95/5 12/96/12
f 12/96/12 14/97/14 16/94/16
f 7/98/1 1/99/6 21/100/25
f 21/100/25 23/101/26 7/98/1
f 13/15/13 91/102/90 70/70/68
f 70/70/68 15/16/15 13/15/13
f 11/11/11 64/63/61 91/103/90
f 91/103/90 13/13/13 11/11/11
f 70/70/68 91/102/90 71/71/69
f 64/63/61 66/66/64 92/104/91
f 92/104/91 91/103/90 64/63/61
f 71/71/69 91/102/90 92/105/91
f 92/105/91 73/73/71 71/71/69
f 67/67/65 94/106/92 66/66/64
f 66/66/64 65/65/63 67/67/65
f 94/106/92 93/107/93 92/104/91
f 92/104/91 66/66/64 94/106/92
f 73/73/71 92/105/91 93/108/93
f 93/108/93 75/74/72 73/73/71
f 94/106/92 67/67/65 84/88/85
f 84/88/85 89/109/94 94/106/92
f 89/109/94 90/110/95 93/107/93
f 93/107/93 94/106/92 89/109/94
f 75/74/72 93/108/93 90/111/95
f 90/111/95 77/77/75 75/74/72
f 95/112/96 85/89/86 88/92/89
f 89/109/94 84/88/85 85/89/86
f 85/89/86 95/112/96 89/109/94
f 95/112/96 96/113/97 90/110/95
f 90/110/95 89/109/94 95/112/96
f 96/114/97 77/77/75 90/111/95
f 77/77/75 96/114/97 79/80/78
f 96/113/97 95/112/96 88/92/89
f 88/92/89 79/93/78 96/113/97
f 21/100/25 1/99/6 10/95/5
f 21/100/25 10/95/5 16/94/16
f 21/100/25 16/94/16 19/115/23
f 78/78/76 97/82/80 98/81/79
f 98/81/79 34/79/77 78/78/76
f 3/116/2 7/98/1 23/101/26
f 23/101/26 5/117/10 3/116/2
f 78/78/76 79/80/78 81/84/82
f 81/84/82 97/82/80 78/78/76
f 33/118/98 25/33/31 26/34/32
f 26/34/32 34/79/77 33/118/98
f 35/37/35 33/118/98 98/81/79
f 98/81/79 36/38/36 35/37/35
f 33/118/98 35/37/35 62/62/60
f 62/62/60 25/33/31 33/118/98
f 98/81/79 33/118/98 34/79/77
