# Blender v2.74 (sub 0) OBJ File: 'empty.blend'
# www.blender.org
mtllib head_1.mtl
o node_shape0
v 0.007910 -0.058313 -0.049404
v -0.031250 -0.007201 -0.049393
v 0.017208 0.061426 -0.049404
v 0.089910 -0.022092 -0.049423
v 0.034728 -0.062391 -0.049410
v 0.021150 -0.061941 -0.049407
v 0.052031 -0.059131 -0.049420
v 0.009529 0.054289 0.083298
v -0.007498 0.025643 0.093128
v -0.001075 0.043640 0.089419
v 0.054392 -0.060962 0.057396
v 0.042972 0.060675 0.063989
v -0.004122 -0.038251 0.091179
v 0.086302 -0.059398 0.038973
v 0.110095 0.051958 0.025236
v 0.118935 -0.046758 0.020132
v 0.134710 -0.028794 0.011025
v 0.090985 0.058957 0.036269
v 0.140305 0.016273 0.007794
v -0.028009 0.021786 -0.039492
v -0.015923 0.042785 -0.010160
v -0.006974 0.050458 -0.049398
v -0.022432 0.033229 -0.049395
v 0.004719 0.056833 -0.022292
v 0.057183 0.056713 -0.049413
v 0.050579 0.059446 -0.030551
v 0.076354 0.043267 -0.032458
v 0.074478 0.044946 -0.049417
v 0.086807 0.028344 -0.049420
v 0.094054 0.005811 -0.049423
v 0.093707 0.003237 -0.032771
v 0.068604 -0.050016 -0.049418
v 0.059580 -0.055814 -0.034637
v 0.034325 -0.062117 -0.020216
v -0.020910 -0.034791 -0.049396
v 0.037510 0.062280 -0.049408
v 0.098371 0.018500 -0.025107
v 0.088652 0.025380 -0.032979
v 0.064243 0.053167 -0.029360
v 0.043310 0.061494 -0.010199
v -0.025419 0.028961 0.017591
v -0.008193 0.051689 0.031602
v 0.040434 0.061148 0.027069
v -0.011420 0.027149 0.085976
v -0.009605 0.041836 0.074604
v -0.018404 0.040010 0.040270
v -0.003317 0.052082 0.063125
v 0.005755 0.057286 0.055885
v 0.017891 0.059407 0.038548
v 0.020536 0.058885 0.076943
v 0.108844 0.047240 0.007303
v 0.082857 0.056479 0.007130
v 0.061399 0.061002 0.053351
v 0.067782 0.059997 0.019289
v 0.099022 0.044500 -0.008012
v 0.122248 0.043543 0.018220
v 0.085293 0.042848 -0.019968
v 0.132595 0.031827 0.012246
v 0.116675 0.022461 -0.014927
v 0.130512 0.020923 -0.003003
v 0.115902 0.033939 -0.007461
v 0.062257 -0.060070 0.009554
v 0.082673 -0.042218 -0.022192
v 0.119364 -0.013454 -0.017154
v -0.018182 -0.039765 0.042275
v -0.017095 -0.043120 0.004585
v 0.001972 -0.055580 -0.020187
v -0.020143 0.031166 0.056442
v -0.025703 0.007261 0.045757
v -0.027542 -0.010294 0.032887
v -0.025053 -0.028335 0.025447
v 0.103580 -0.046299 -0.001141
v 0.113858 -0.031502 -0.011117
v 0.127438 -0.028838 -0.000649
v 0.135051 -0.007700 -0.003762
v 0.142415 -0.008002 0.006576
v 0.098516 -0.056716 0.031921
v 0.071943 -0.060614 0.047263
v -0.021463 -0.025025 0.057024
v -0.009598 -0.043203 0.072116
v -0.009682 -0.050603 0.028675
v 0.013261 -0.058779 0.036629
v 0.047924 -0.061250 0.025257
v 0.028012 -0.060784 0.022961
v 0.021978 -0.059266 0.076110
v 0.005452 -0.051299 0.085652
v -0.012861 -0.029058 0.081288
v -0.000421 -0.054015 0.062044
v 0.097882 -0.053284 0.012066
v 0.000738 -0.055848 0.028058
v 0.091904 -0.014783 -0.034886
v 0.098196 -0.009813 -0.026229
v 0.092353 -0.024673 -0.025971
v 0.069595 -0.053806 -0.017069
v 0.074922 -0.044321 -0.037328
v 0.048233 -0.060364 -0.019080
v 0.084042 -0.033211 -0.036754
v -0.028737 -0.018648 -0.049390
v -0.024650 -0.031478 0.012883
v -0.006611 -0.049752 -0.049399
v -0.031363 -0.002638 -0.003211
v -0.031426 0.005947 -0.049392
v -0.030021 0.013791 -0.008849
v -0.009132 -0.013881 0.094072
v -0.019542 -0.007613 0.069917
v -0.014071 -0.005078 0.083909
v -0.018378 0.019278 0.070557
v 0.129724 0.006156 -0.010533
v 0.115634 0.006413 -0.019722
v 0.065801 0.056011 -0.014874
v -0.003550 0.052446 -0.026277
v -0.021775 0.035473 -0.009561
v -0.028062 0.018371 0.017653
v -0.029251 -0.017121 -0.008887
v 0.016311 -0.059958 -0.003886
v 0.026651 0.061729 -0.016159
v 0.011925 0.058801 0.008605
vn -0.000200 0.000000 -1.000000
vn -0.000300 0.000000 -1.000000
vn -0.000800 -0.000000 -1.000000
vn 0.000500 -0.000200 -1.000000
vn -0.935800 0.308500 -0.170500
vn -0.000300 0.000100 -1.000000
vn -0.000600 0.000600 -1.000000
vn -0.000500 0.000100 -1.000000
vn 0.000400 -0.000500 -1.000000
vn 0.788400 -0.601600 -0.128600
vn 0.500000 -0.000000 0.866000
vn 0.499900 0.000100 0.866100
vn -0.774700 0.380600 0.505000
vn 0.499900 -0.000100 0.866100
vn -0.308600 0.940000 0.145200
vn -0.966400 0.124100 0.225300
vn -0.976500 0.215600 -0.007900
vn -0.886300 0.461800 0.034600
vn -0.743700 0.667300 -0.039100
vn -0.599100 0.800400 0.019900
vn -0.412800 0.910100 -0.036000
vn -0.466000 0.884800 -0.007100
vn -0.318500 0.947800 0.013900
vn -0.042000 0.999100 0.002800
vn 0.272000 0.961300 -0.044000
vn 0.416500 0.909000 0.014100
vn 0.633900 0.773400 0.006500
vn 0.561800 0.825700 -0.051700
vn 0.802500 0.596000 -0.029700
vn 0.824100 0.566300 0.009700
vn 0.950700 0.305800 -0.051500
vn 0.973300 0.222700 0.054700
vn 0.987300 -0.146600 -0.061700
vn 0.995000 -0.100200 0.005200
vn 0.914500 -0.397700 0.074500
vn 0.763900 -0.617400 -0.188100
vn 0.605000 -0.794100 0.057900
vn 0.481300 -0.875100 -0.049500
vn 0.185100 -0.982600 -0.016800
vn -0.033200 -0.999400 0.008900
vn -0.899400 -0.436100 -0.030800
vn -0.976700 -0.214400 -0.004300
vn -0.999900 -0.013400 -0.001100
vn 0.232400 0.972500 -0.014900
vn 0.684100 0.149500 -0.713900
vn 0.731100 0.492400 -0.472300
vn 0.710700 0.503000 -0.491800
vn 0.534700 0.765900 -0.357000
vn 0.423200 0.879400 -0.218200
vn 0.007300 0.999800 0.018900
vn -0.922400 0.371900 0.104100
vn -0.976000 0.161800 0.145900
vn -0.753200 0.657800 -0.000900
vn -0.834100 0.551500 -0.010700
vn -0.371700 0.928300 -0.000500
vn -0.460100 0.885800 0.060100
vn -0.171800 0.985000 0.014300
vn -0.060400 0.997600 0.032700
vn -0.710500 0.696300 0.101200
vn -0.919700 0.050700 0.389200
vn -0.871600 0.047700 0.488000
vn -0.926100 0.223400 0.303900
vn -0.807600 0.420200 0.413900
vn -0.642600 0.711900 0.283400
vn -0.588400 0.753900 0.292200
vn -0.885000 0.348400 0.308800
vn -0.839800 0.509200 0.188100
vn -0.752200 0.639500 0.158700
vn -0.396600 0.905100 0.153500
vn -0.140000 0.989900 0.023100
vn -0.068200 0.997500 0.017500
vn -0.069000 0.997400 0.018300
vn -0.156500 0.987600 0.011200
vn -0.254600 0.967100 -0.002200
vn 0.045700 0.998900 0.012800
vn 0.324100 0.906500 -0.270500
vn 0.161600 0.983300 -0.084200
vn 0.198800 0.964400 -0.174600
vn 0.035600 0.999100 -0.022800
vn 0.058300 0.998100 -0.018500
vn 0.132300 0.983800 -0.120600
vn 0.373200 0.759100 -0.533400
vn 0.372400 0.842400 -0.389600
vn 0.571300 0.712400 -0.407600
vn 0.444500 0.407200 -0.797900
vn 0.439300 0.671100 -0.597200
vn 0.485200 0.752200 -0.445800
vn 0.536500 0.738300 -0.408700
vn 0.738600 0.496600 -0.456000
vn 0.768300 0.257700 -0.585900
vn 0.434000 0.232000 -0.870600
vn 0.536800 0.209400 -0.817300
vn 0.638300 0.322400 -0.699100
vn 0.320900 0.531600 -0.783900
vn 0.608100 0.461300 -0.646100
vn 0.657100 0.567800 -0.495800
vn 0.260400 0.953200 -0.153700
vn 0.324800 0.908800 -0.261700
vn 0.445600 0.857600 -0.256700
vn -0.009900 0.999900 0.013500
vn 0.129100 -0.990200 -0.053100
vn 0.122400 -0.991200 -0.049800
vn 0.244400 -0.954200 -0.172700
vn 0.305700 -0.909900 -0.280500
vn 0.419000 -0.718400 -0.555400
vn 0.427000 -0.409200 -0.806400
vn 0.430600 -0.401700 -0.808200
vn 0.365600 -0.159700 -0.917000
vn -0.026500 -0.999300 0.027000
vn -0.830100 -0.557000 0.025600
vn -0.764400 -0.643700 0.035300
vn -0.450300 -0.892700 -0.016500
vn -0.279000 -0.960200 -0.012500
vn -0.116300 -0.993000 0.020100
vn 0.077500 -0.997000 -0.004200
vn -0.973500 -0.188100 0.130400
vn -0.900900 -0.426900 0.077900
vn -0.234800 -0.972000 0.010600
vn -0.963400 0.241100 0.117100
vn -0.993200 0.052600 0.104200
vn -0.993600 0.023300 0.110100
vn -0.984000 -0.164300 0.069300
vn 0.519300 -0.695500 -0.496600
vn 0.605600 -0.412400 -0.680600
vn 0.679600 -0.340500 -0.649800
vn 0.667500 -0.103700 -0.737400
vn 0.757000 -0.353600 -0.549500
vn 0.544500 -0.732400 -0.408800
vn 0.597300 -0.711800 -0.369400
vn 0.781100 -0.393200 -0.485100
vn 0.384600 -0.874200 -0.296500
vn 0.350700 -0.920900 -0.170300
vn 0.155400 -0.982300 -0.104500
vn 0.066300 -0.997300 -0.031400
vn 0.051800 -0.998300 -0.027700
vn -0.963000 0.035300 0.267300
vn -0.974900 -0.052600 0.216300
vn -0.889200 -0.407000 0.208900
vn -0.699000 -0.705000 0.119900
vn -0.700500 -0.703100 0.122500
vn -0.255700 -0.965800 0.043400
vn 0.022400 -0.999700 0.004500
vn -0.025000 -0.999600 0.014000
vn -0.038300 -0.999000 0.024200
vn -0.618400 -0.748400 0.239900
vn -0.672300 -0.646300 0.361000
vn -0.837500 -0.419900 0.349700
vn -0.825600 -0.230900 0.514900
vn -0.923600 -0.087400 0.373200
vn -0.922300 -0.087700 0.376500
vn -0.335400 -0.922800 0.189600
vn -0.941300 -0.127500 0.312500
vn -0.892900 -0.371200 0.254800
vn -0.254200 -0.966100 0.044200
vn -0.121400 -0.992500 0.014600
vn 0.440800 -0.691800 -0.571900
vn 0.344400 -0.883100 -0.318500
vn -0.447800 -0.893500 0.032900
vn -0.926600 -0.348200 0.141900
vn -0.975600 -0.053900 0.212800
vn 0.839400 0.016400 -0.543300
vn 0.812300 -0.012900 -0.583000
vn 0.842900 -0.338700 -0.418200
vn 0.604000 -0.771000 -0.202200
vn 0.558100 -0.798100 -0.226900
vn 0.298200 -0.952600 -0.061100
vn 0.384700 -0.923000 0.010600
vn 0.124100 -0.992200 0.011000
vn -0.088500 -0.995500 0.034000
vn -0.264200 -0.964400 0.013900
vn 0.855900 -0.324300 -0.402900
vn 0.828400 -0.507900 -0.236300
vn 0.745100 -0.596300 -0.298700
vn -0.779900 0.614500 -0.118600
vn -0.897400 0.440900 -0.014700
vn -0.961100 0.276000 0.008900
vn -0.952000 -0.306000 -0.000600
vn -0.721800 -0.689900 -0.055400
vn -0.507800 -0.861200 -0.022600
vn -0.845900 -0.532900 -0.022500
vn -0.988800 -0.149000 0.012300
vn -0.996000 0.087400 0.017600
vn 0.836900 0.099800 -0.538200
vn 0.814500 0.030100 -0.579300
vn 0.320200 0.035500 -0.946700
vn 0.386800 -0.046400 -0.921000
vn -0.883500 0.042800 0.466400
vn -0.932800 0.031800 0.359000
vn 0.546200 -0.005700 -0.837700
vn 0.506300 0.834300 -0.218300
vn 0.234100 0.972100 -0.014300
vn 0.010500 0.999900 0.010100
vn -0.459000 0.888100 -0.025200
vn -0.648400 0.760200 -0.042100
vn -0.778100 0.626500 0.045800
vn -0.969800 0.242200 0.029800
vn -0.993400 0.100400 0.056100
vn -0.983500 -0.168900 0.065100
vn -0.965500 -0.258400 0.033700
vn -0.653200 -0.756400 -0.033900
vn -0.492500 -0.869800 -0.028900
vn -0.317000 -0.948100 0.024200
vn -0.105300 -0.994300 0.015300
vn -0.143400 0.989200 0.031700
usemtl None
s off
f 28//1 29//1 6//1
f 36//1 25//1 6//1
f 25//1 28//1 6//1
f 3//2 6//2 1//2
f 100//2 3//2 1//2
f 35//1 23//1 22//1
f 6//1 3//1 36//1
f 35//3 98//3 23//3
f 98//4 2//4 23//4
f 20//5 23//5 102//5
f 35//1 22//1 3//1
f 29//1 30//1 6//1
f 30//6 4//6 6//6
f 4//7 7//7 5//7
f 23//8 2//8 102//8
f 4//1 5//1 6//1
f 100//1 35//1 3//1
f 7//9 4//9 32//9
f 32//10 4//10 95//10
f 9//11 50//11 8//11
f 12//11 9//11 104//11
f 9//12 8//12 10//12
f 12//11 13//11 86//11
f 53//11 14//11 77//11
f 12//11 86//11 85//11
f 53//11 77//11 16//11
f 9//11 12//11 50//11
f 44//13 9//13 10//13
f 12//11 85//11 11//11
f 12//11 11//11 53//11
f 53//11 76//11 19//11
f 53//11 19//11 18//11
f 104//11 13//11 12//11
f 53//11 11//11 78//11
f 53//11 78//11 14//11
f 19//14 58//14 56//14
f 56//11 15//11 19//11
f 53//11 16//11 17//11
f 53//11 17//11 76//11
f 15//11 18//11 19//11
f 8//15 50//15 48//15
f 68//16 69//16 107//16
f 102//17 103//17 20//17
f 21//18 23//18 20//18
f 21//19 22//19 23//19
f 111//20 22//20 21//20
f 3//21 22//21 24//21
f 24//22 22//22 111//22
f 117//23 3//23 24//23
f 116//24 36//24 3//24
f 36//25 26//25 25//25
f 39//26 25//26 26//26
f 27//27 28//27 39//27
f 39//28 28//28 25//28
f 29//29 28//29 27//29
f 29//30 27//30 38//30
f 29//31 38//31 30//31
f 31//32 30//32 38//32
f 4//33 30//33 91//33
f 91//34 30//34 31//34
f 4//35 91//35 97//35
f 4//36 97//36 95//36
f 33//37 32//37 95//37
f 33//38 7//38 32//38
f 96//39 5//39 7//39
f 6//40 5//40 34//40
f 99//41 98//41 35//41
f 114//42 2//42 98//42
f 101//43 102//43 2//43
f 40//44 26//44 36//44
f 37//45 31//45 38//45
f 37//46 38//46 57//46
f 57//47 38//47 27//47
f 57//48 27//48 39//48
f 110//49 39//49 26//49
f 40//50 36//50 116//50
f 68//51 46//51 41//51
f 68//52 113//52 69//52
f 42//53 21//53 46//53
f 46//54 21//54 41//54
f 48//55 24//55 42//55
f 42//56 47//56 48//56
f 116//57 117//57 49//57
f 116//58 49//58 43//58
f 47//59 42//59 46//59
f 44//60 107//60 106//60
f 104//61 9//61 44//61
f 107//62 44//62 68//62
f 45//63 44//63 10//63
f 45//64 10//64 47//64
f 47//65 10//65 8//65
f 68//66 44//66 45//66
f 46//67 68//67 45//67
f 46//68 45//68 47//68
f 47//69 8//69 48//69
f 48//70 50//70 49//70
f 43//71 49//71 12//71
f 12//72 49//72 50//72
f 48//73 49//73 117//73
f 48//74 117//74 24//74
f 40//75 43//75 54//75
f 51//76 110//76 52//76
f 54//77 52//77 40//77
f 110//78 40//78 52//78
f 43//79 53//79 54//79
f 54//80 53//80 18//80
f 54//81 18//81 52//81
f 55//82 57//82 110//82
f 55//83 110//83 51//83
f 61//84 56//84 58//84
f 61//85 37//85 57//85
f 57//86 55//86 61//86
f 61//87 55//87 51//87
f 61//88 51//88 56//88
f 60//89 58//89 19//89
f 60//90 19//90 108//90
f 37//91 59//91 109//91
f 109//92 59//92 108//92
f 108//93 59//93 60//93
f 37//94 61//94 59//94
f 59//95 61//95 60//95
f 60//96 61//96 58//96
f 18//97 15//97 52//97
f 52//98 15//98 51//98
f 51//99 15//99 56//99
f 43//100 12//100 53//100
f 62//101 34//101 96//101
f 62//102 96//102 77//102
f 77//103 96//103 89//103
f 89//104 96//104 94//104
f 72//105 94//105 63//105
f 73//106 63//106 93//106
f 73//107 93//107 64//107
f 64//108 93//108 92//108
f 83//109 84//109 34//109
f 65//110 99//110 66//110
f 65//111 66//111 81//111
f 90//112 81//112 67//112
f 90//113 67//113 115//113
f 82//114 115//114 84//114
f 62//115 83//115 34//115
f 79//116 70//116 71//116
f 65//117 71//117 99//117
f 82//118 90//118 115//118
f 68//119 41//119 113//119
f 69//120 113//120 101//120
f 69//121 101//121 70//121
f 70//122 101//122 71//122
f 74//123 72//123 73//123
f 74//124 73//124 64//124
f 74//125 64//125 75//125
f 75//126 64//126 108//126
f 75//127 76//127 74//127
f 16//128 72//128 74//128
f 74//129 17//129 16//129
f 76//130 17//130 74//130
f 72//131 16//131 89//131
f 89//132 16//132 77//132
f 62//133 77//133 14//133
f 62//134 14//134 78//134
f 62//135 78//135 83//135
f 107//136 69//136 105//136
f 105//137 69//137 79//137
f 80//138 79//138 65//138
f 80//139 65//139 88//139
f 88//140 65//140 81//140
f 88//141 90//141 82//141
f 78//142 11//142 83//142
f 83//143 11//143 84//143
f 84//144 11//144 85//144
f 88//145 86//145 80//145
f 86//146 13//146 80//146
f 13//147 87//147 80//147
f 87//148 13//148 104//148
f 104//149 106//149 87//149
f 105//150 87//150 106//150
f 85//151 86//151 88//151
f 105//152 79//152 87//152
f 87//153 79//153 80//153
f 85//154 88//154 82//154
f 85//155 82//155 84//155
f 63//156 73//156 72//156
f 94//157 72//157 89//157
f 81//158 90//158 88//158
f 71//159 65//159 79//159
f 70//160 79//160 69//160
f 31//161 37//161 92//161
f 91//162 31//162 92//162
f 91//163 92//163 93//163
f 95//164 63//164 94//164
f 95//165 94//165 33//165
f 33//166 94//166 96//166
f 7//167 33//167 96//167
f 5//168 96//168 34//168
f 6//169 34//169 115//169
f 6//170 115//170 1//170
f 91//171 93//171 97//171
f 97//172 93//172 63//172
f 97//173 63//173 95//173
f 112//174 21//174 20//174
f 112//175 20//175 41//175
f 41//176 20//176 103//176
f 114//177 98//177 99//177
f 66//178 35//178 100//178
f 1//179 67//179 100//179
f 35//180 66//180 99//180
f 2//181 114//181 101//181
f 102//182 101//182 103//182
f 19//183 76//183 108//183
f 108//184 76//184 75//184
f 92//185 37//185 109//185
f 92//186 109//186 64//186
f 106//187 104//187 44//187
f 105//188 106//188 107//188
f 108//189 64//189 109//189
f 110//190 57//190 39//190
f 40//191 110//191 26//191
f 43//192 40//192 116//192
f 42//193 24//193 111//193
f 42//194 111//194 21//194
f 21//195 112//195 41//195
f 113//196 41//196 103//196
f 113//197 103//197 101//197
f 101//198 114//198 71//198
f 71//199 114//199 99//199
f 81//200 66//200 100//200
f 81//201 100//201 67//201
f 115//202 67//202 1//202
f 84//203 115//203 34//203
f 116//204 3//204 117//204
